<svg xmlns="http://www.w3.org/2000/svg" viewBox="0 0 200 200" width="200" height="200">
  <defs>
    <linearGradient id="grad1" x1="0%" y1="0%" x2="100%" y2="100%">
      <stop offset="0%" stop-color="#1e293b"/>
      <stop offset="100%" stop-color="#0f172a"/>
    </linearGradient>
    <linearGradient id="gold" x1="0%" y1="0%" x2="100%" y2="100%">
      <stop offset="0%" stop-color="#f59e0b"/>
      <stop offset="100%" stop-color="#d97706"/>
    </linearGradient>
  </defs>
  <!-- Background Shield/Crest -->
  <path d="M 100 20 L 170 50 C 170 130 100 175 100 175 C 100 175 30 130 30 50 Z" fill="url(#grad1)" stroke="url(#gold)" stroke-width="6" stroke-linejoin="round"/>
  <!-- Inner Details -->
  <path d="M 100 35 L 155 60 C 155 120 100 158 100 158 C 100 158 45 120 45 60 Z" fill="none" stroke="#334155" stroke-width="2"/>
  <!-- Emblem Icon (Shield / Star) -->
  <polygon points="100,65 108,82 127,85 113,98 117,117 100,108 83,117 87,98 73,85 92,82" fill="url(#gold)"/>
  <!-- Text -->
  <text x="100" y="140" font-family="system-ui, sans-serif" font-size="14" font-weight="800" fill="#f8fafc" text-anchor="middle" letter-spacing="1">LOGO 1</text>
</svg>
